<svg xmlns="http://www.w3.org/2000/svg" viewBox="0 0 24 24" id="back-arrow">
  <path fill="#fcef56" d="M19 23H5a4 4 0 0 1-4-4V5a4 4 0 0 1 4-4h14a4 4 0 0 1 4 4v14a4 4 0 0 1-4 4z"></path>
  <path d="M19 23.5H5A4.505 4.505 0 0 1 .5 19V5C.5 2.519 2.519.5 5 .5h14c2.481 0 4.5 2.019 4.5 4.5v14c0 2.481-2.018 4.5-4.5 4.5zM5 1.5C3.07 1.5 1.5 3.07 1.5 5v14c0 1.93 1.57 3.5 3.5 3.5h14c1.93 0 3.5-1.57 3.5-3.5V5c0-1.93-1.57-3.5-3.5-3.5H5z"></path>
  <path d="m7.152 12.354 5 5a.498.498 0 0 0 .708 0 .5.5 0 0 0 0-.707L8.212 12l4.646-4.646a.5.5 0 0 0-.707-.707l-5 5a.5.5 0 0 0 .001.707z"></path>
  <path d="M17.859 6.646a.5.5 0 0 0-.707 0l-5 5a.5.5 0 0 0 0 .707l5 5a.498.498 0 0 0 .708 0 .5.5 0 0 0 0-.707L13.212 12l4.646-4.646a.5.5 0 0 0 .001-.708z"></path>
</svg>
